<?xml version="1.0" standalone="no"?><!DOCTYPE svg PUBLIC "-//W3C//DTD SVG 1.1//EN" "http://www.w3.org/Graphics/SVG/1.1/DTD/svg11.dtd"><svg t="1620092890600" class="icon" viewBox="0 0 1024 1024" version="1.1" xmlns="http://www.w3.org/2000/svg" p-id="2619" xmlns:xlink="http://www.w3.org/1999/xlink" width="400" height="400"><defs><style type="text/css"></style></defs><path d="M181.333333 128A32 32 0 0 0 149.333333 160v704A32 32 0 0 0 181.333333 896h320a32 32 0 0 0 32-32v-112.704C556.885333 833.92 630.037333 896 720 896c108.586667 0 197.333333-88.746667 197.333333-197.333333 0-89.962667-62.08-163.114667-144.704-186.666667C855.253333 488.448 917.333333 415.296 917.333333 325.333333 917.333333 216.746667 828.586667 128 720 128c-89.962667 0-163.114667 62.08-186.666667 144.704V160A32 32 0 0 0 501.333333 128h-320zM213.333333 192h256v640H213.333333V192z m506.666667 0C794.026667 192 853.333333 251.306667 853.333333 325.333333s-59.306667 133.333333-133.333333 133.333334-133.333333-59.306667-133.333333-133.333334S645.973333 192 720 192zM533.333333 377.962667A193.216 193.216 0 0 0 667.370667 512 193.216 193.216 0 0 0 533.333333 646.037333V377.962667z m186.666667 187.370666c74.026667 0 133.333333 59.306667 133.333333 133.333334S794.026667 832 720 832s-133.333333-59.306667-133.333333-133.333333 59.306667-133.333333 133.333333-133.333334z" p-id="2620" fill="#ffffff"></path></svg>