<?xml version="1.0" standalone="no"?><!DOCTYPE svg PUBLIC "-//W3C//DTD SVG 1.1//EN" "http://www.w3.org/Graphics/SVG/1.1/DTD/svg11.dtd"><svg t="1620803297799" class="icon" viewBox="0 0 1024 1024" version="1.1" xmlns="http://www.w3.org/2000/svg" p-id="4010" xmlns:xlink="http://www.w3.org/1999/xlink" width="400" height="400"><defs><style type="text/css"></style></defs><path d="M996.352 896c-15.36-66.56-43.008-203.776-45.056-306.176 0-17.408-14.336-31.744-31.744-31.744h-80.896c-16.384 0-30.72 12.288-31.744 28.672l-23.552 224.256c-2.048 16.384-15.36 28.672-31.744 28.672H381.952c-21.504 0-36.864-20.48-30.72-40.96 98.304-359.424 68.608-586.752 56.32-681.984-2.048-16.384-15.36-27.648-31.744-27.648h-87.04c-19.456 0-33.792 16.384-31.744 35.84 38.912 423.936-135.168 642.048-212.992 759.808-14.336 21.504 1.024 50.176 26.624 50.176h894.976c19.456 0 34.816-19.456 30.72-38.912z" p-id="4011"></path><path d="M897.024 309.248c-52.224 0-99.328 41.984-104.448 94.208v2.048c-5.12 52.224 32.768 94.208 84.992 94.208s99.328-41.984 104.448-94.208v-2.048c5.12-52.224-32.768-94.208-84.992-94.208z" p-id="4012"></path></svg>