<?xml version="1.0" standalone="no"?><!DOCTYPE svg PUBLIC "-//W3C//DTD SVG 1.1//EN" "http://www.w3.org/Graphics/SVG/1.1/DTD/svg11.dtd"><svg t="1619065897089" class="icon" viewBox="0 0 1024 1024" version="1.1" xmlns="http://www.w3.org/2000/svg" p-id="8041" xmlns:xlink="http://www.w3.org/1999/xlink" width="400" height="400"><defs><style type="text/css"></style></defs><path d="M341.504 197.12c-57.344 0.512-112.128 24.576-151.04 67.584-82.944 93.184-82.944 233.472 0 326.656 0 0 236.032 246.272 304.64 304.64 9.728 8.192 24.064 8.192 33.28 0 69.12-58.88 304.64-305.152 304.64-305.152 40.448-44.544 62.976-102.912 62.464-162.816 0.512-66.048-26.112-129.024-73.728-174.592-36.864-35.328-86.016-54.784-136.704-54.784-60.416 0.512-117.76 26.624-158.72 71.68l-15.36 16.384-19.968-21.504c-37.376-43.008-92.16-67.584-149.504-68.096z m207.872 504.32h-1.536c-8.704-0.512-15.872-6.144-18.944-13.824l-87.04-232.96-48.128 95.744c-3.584 7.168-10.752 11.776-18.944 11.776H187.904c-11.776 0-21.504-9.728-21.504-21.504 0-11.776 9.728-21.504 21.504-21.504h175.104l64-128c3.584-7.68 11.776-12.288 20.48-11.776 8.192 0.512 15.872 5.632 18.944 13.824l87.552 232.96 47.616-95.744c3.584-7.168 10.752-11.776 18.944-11.776h220.672c11.776 0 21.504 9.728 21.504 21.504 0 11.776-9.728 21.504-21.504 21.504h-208.896l-64 128c-4.096 7.168-11.264 11.776-18.944 11.776z" p-id="8042" fill="#eb507e"></path></svg>