<?xml version="1.0" standalone="no"?><!DOCTYPE svg PUBLIC "-//W3C//DTD SVG 1.1//EN" "http://www.w3.org/Graphics/SVG/1.1/DTD/svg11.dtd"><svg class="icon" width="200px" height="200.00px" viewBox="0 0 1024 1024" version="1.1" xmlns="http://www.w3.org/2000/svg"><path d="M412.627478 388.674783v-38.555826a310.227478 310.227478 0 0 0-41.093565-2.982957C203.553391 347.136 66.782609 481.502609 66.782609 646.455652c0 101.197913 51.511652 190.820174 130.137043 245.047652a295.268174 295.268174 0 0 1-81.92-203.776c0-162.682435 132.897391-295.312696 297.627826-299.097043" fill="#3FBABE" /><path d="M419.84 824.498087c74.974609 0 136.102957-58.590609 138.907826-131.561739L559.014957 41.271652h121.188173A221.896348 221.896348 0 0 1 676.285217 0H510.753391l-0.311652 651.664696c-2.760348 72.97113-63.888696 131.606261-138.863304 131.606261a140.243478 140.243478 0 0 1-64.556522-15.671653A139.709217 139.709217 0 0 0 419.84 824.542609M906.685217 262.41113v-36.196173a231.958261 231.958261 0 0 1-125.46226-36.641392 231.334957 231.334957 0 0 0 125.46226 72.837565" fill="#3FBABE" /><path d="M781.222957 189.573565A222.875826 222.875826 0 0 1 724.591304 41.271652h-44.388174a226.526609 226.526609 0 0 0 101.064348 148.257391m-409.689043 320.333914c-76.755478 0-139.219478 61.306435-139.219478 136.681739 0 52.49113 30.274783 98.081391 74.573913 120.965565a134.144 134.144 0 0 1-26.312348-79.738435c0-75.330783 62.374957-136.681739 139.219478-136.681739 13.935304 0 27.781565 2.137043 41.093565 6.322087V391.346087a309.871304 309.871304 0 0 0-41.093565-2.893913 170.518261 170.518261 0 0 0-7.168 0.178087v127.465739a139.442087 139.442087 0 0 0-41.138087-6.277565" fill="#E4004E" /><path d="M906.640696 262.366609v126.441739a398.736696 398.736696 0 0 1-230.355479-72.793044v330.395826c0 165.086609-136.726261 299.319652-304.751304 299.319653a306.799304 306.799304 0 0 1-174.658783-54.272 306.487652 306.487652 0 0 0 222.875827 95.588174c168.069565 0 304.795826-134.277565 304.795826-299.319653V357.286957a398.692174 398.692174 0 0 0 230.310956 72.748521V267.442087a234.629565 234.629565 0 0 1-48.217043-5.075478" fill="#E4004E" /><path d="M676.285217 646.500174V316.104348a398.692174 398.692174 0 0 0 230.355479 72.704V262.41113a231.290435 231.290435 0 0 1-125.417739-72.793043A226.482087 226.482087 0 0 1 680.20313 41.271652h-121.188173l-0.267131 651.664696c-2.80487 72.926609-63.933217 131.561739-138.907826 131.561739a139.798261 139.798261 0 0 1-112.862609-56.987826 136.45913 136.45913 0 0 1-74.618434-121.010087c0-75.330783 62.419478-136.681739 139.219478-136.681739 13.935304 0.044522 27.781565 2.226087 41.093565 6.322087V388.674783c-164.730435 3.784348-297.627826 136.414609-297.627826 299.097043a295.223652 295.223652 0 0 0 81.875478 203.776 306.843826 306.843826 0 0 0 174.658783 54.316522c167.980522 0 304.751304-134.277565 304.751304-299.319652" fill="#231916" /></svg>