<?xml version="1.0" standalone="no"?><!DOCTYPE svg PUBLIC "-//W3C//DTD SVG 1.1//EN" "http://www.w3.org/Graphics/SVG/1.1/DTD/svg11.dtd"><svg class="icon" width="200px" height="200.00px" viewBox="0 0 1024 1024" version="1.1" xmlns="http://www.w3.org/2000/svg"><path fill="#5698c3" d="M985.088 262.144c-15.7696-15.5648-41.3696-15.5648-56.9344 0.2048L515.2768 678.912 96.6656 264.192c-15.7696-15.7696-41.3696-15.5648-56.9344 0.2048-15.7696 15.7696-15.5648 41.3696 0.2048 56.9344l444.8256 440.7296c0.6144 0.6144 1.6384 0.8192 2.2528 1.4336 0.2048 0.2048 0.2048 0.4096 0.4096 0.6144 7.7824 7.7824 18.2272 11.6736 28.4672 11.6736 10.4448 0 20.6848-3.8912 28.672-11.8784l440.7296-444.8256c15.5648-15.7696 15.5648-41.1648-0.2048-56.9344z m0 0" /></svg>