<?xml version="1.0" encoding="UTF-8"?>
<svg width="314px" height="314px" viewBox="0 0 314 314" version="1.1" xmlns="http://www.w3.org/2000/svg" xmlns:xlink="http://www.w3.org/1999/xlink">
    <!-- Generator: Sketch 63 (92445) - https://sketch.com -->
    <title>编组 23</title>
    <desc>Created with Sketch.</desc>
    <g id="页面-1" stroke="none" stroke-width="1" fill="none" fill-rule="evenodd">
        <g id="编组-23" transform="translate(-25.000000, 0.000000)">
            <rect id="矩形备份-5" fill="#FFFFFF" x="25" y="0" width="314" height="314"></rect>
            <g id="编组-15" transform="translate(173.000000, 172.500000) rotate(-34.000000) translate(-173.000000, -172.500000) translate(24.000000, 85.000000)" stroke="#604D96">
                <path d="M263.842568,40.6600751 C271.882999,47.8642962 276.707258,54.2680482 271.078956,58.2703933 C265.450654,62.2727383 254.194051,67.8760213 254.194051,72.6788354 C254.194051,77.4816494 248.565749,87.0872775 267.862784,97.4933745 C287.159818,107.899472 297.612378,111.101348 297.612378,122.307914 C297.612378,133.51448 286.355775,154.326674 262.234482,163.932302 C238.113189,173.53793 175.397828,181.54262 103.837992,162.331364 C32.278157,143.120108 -3.09973922,107.899472 0.920476258,72.6788354 C4.94069173,37.4581991 39.5145448,8.64131493 95.7975614,1.43709388 C152.080578,-5.76712716 241.329362,16.646005 263.842568,40.6600751 Z M185.204911,52.0563325 C184.230155,61.2892982 196.328331,70.1226966 212.226943,71.7862857 C228.125556,73.4498639 241.804124,67.3136674 242.778882,58.080702 C243.753638,48.8477363 231.655462,40.0143379 215.75685,38.3507488 C199.858237,36.6871706 186.179668,42.8233671 185.204911,52.0563325 Z" id="形状结合" fill="#FF9697"></path>
                <ellipse id="椭圆形" fill="#B5D9F6" cx="94.2333234" cy="28.9422764" rx="17" ry="9"></ellipse>
                <ellipse id="椭圆形备份-2" fill="#FF7071" cx="59.9892366" cy="52.8868482" rx="17" ry="9"></ellipse>
                <ellipse id="椭圆形备份-3" fill="#FFEB6B" cx="59.5243562" cy="87.553603" rx="17" ry="9"></ellipse>
                <ellipse id="椭圆形备份-4" fill="#E388FF" cx="90.6799251" cy="121.836697" rx="17" ry="9"></ellipse>
                <ellipse id="椭圆形备份-5" fill="#81E078" cx="146.32296" cy="141.275129" rx="17" ry="9"></ellipse>
                <ellipse id="椭圆形备份-6" fill="#FEE3B8" cx="203.760596" cy="136.593457" rx="17" ry="9"></ellipse>
            </g>
        </g>
    </g>
</svg>