<?xml version="1.0" encoding="UTF-8"?>
<svg width="314px" height="314px" viewBox="0 0 314 314" version="1.1" xmlns="http://www.w3.org/2000/svg" xmlns:xlink="http://www.w3.org/1999/xlink">
    <!-- Generator: Sketch 63 (92445) - https://sketch.com -->
    <title>编组 22</title>
    <desc>Created with Sketch.</desc>
    <g id="页面-1" stroke="none" stroke-width="1" fill="none" fill-rule="evenodd">
        <g id="编组-22" transform="translate(-1.000000, -20.000000)">
            <rect id="矩形备份-8" fill="#FFFFFF" x="1" y="20" width="314" height="314"></rect>
            <g id="编组-3" transform="translate(150.395409, 171.586218) rotate(11.000000) translate(-150.395409, -171.586218) translate(26.895409, 21.086218)" stroke="#604D96">
                <g id="编组-12" transform="translate(123.308056, 154.782752) rotate(-53.000000) translate(-123.308056, -154.782752) translate(42.808056, 61.782752)">
                    <path d="M20.912715,149.272551 L154.140508,2.55241046 C155.197716,1.38813502 156.998585,1.30134049 158.162861,2.35854945 C158.232864,2.42211493 158.299657,2.48912778 158.362992,2.55933893 C159.573268,3.90100337 159.616373,5.92732123 158.464246,7.31923934 L31.6839463,160.486299 L31.6839463,160.486299 L20.912715,149.272551 Z" id="路径-131" fill="#FCA9FD"></path>
                    <path d="M0.488347132,170.417597 C0.488347132,172.775765 5.64191458,182.680071 10.795482,185.509873 C18.7600863,180.321903 27.1931966,168.531062 32.8152702,159.098389 C31.8782579,157.211855 25.3191721,152.023885 21.1026169,149.194083 C12.6695066,155.32532 0.488347132,168.059428 0.488347132,170.417597 Z" id="路径-132" fill="#B5D9F6"></path>
                </g>
                <g id="编组-13" transform="translate(74.135691, 0.409200)">
                    <path d="M4.19725525,286.679735 C6.64914141,290.780803 16.4606542,295.699707 23.8202808,296.517542 C27.0928636,292.141032 32.5483336,281.47416 40.1866906,264.516926 L22.1992006,254.678552 C8.56331294,273.278628 2.56266448,283.945689 4.19725525,286.679735 Z" id="路径-133" fill="#FFC9DD" transform="translate(22.060745, 275.598047) rotate(-10.000000) translate(-22.060745, -275.598047) "></path>
                    <path d="M96.5009445,3.21556172 L17.9224657,256.578947 L17.9224657,256.578947 L37.6194354,263.684211 L102.974697,5.63203974 C103.445345,3.77370863 102.444237,1.85850966 100.649738,1.18421053 C99.0084908,0.567496757 97.1780514,1.3980456 96.5613376,3.03929329 C96.5394862,3.09744587 96.5193465,3.15622733 96.5009445,3.21556172 Z" id="路径-134" fill="#FEE3B8"></path>
                </g>
            </g>
        </g>
    </g>
</svg>