<?xml version="1.0" standalone="no"?><!DOCTYPE svg PUBLIC "-//W3C//DTD SVG 1.1//EN" "http://www.w3.org/Graphics/SVG/1.1/DTD/svg11.dtd"><svg t="1618808371870" class="icon" viewBox="0 0 1024 1024" version="1.1" xmlns="http://www.w3.org/2000/svg" p-id="2849" xmlns:xlink="http://www.w3.org/1999/xlink" width="400" height="400"><defs><style type="text/css"></style></defs><path d="M73.362286 637.074286l28.598857-83.017143c169.837714 58.660571 311.588571 87.771429 424.521143 87.771428 112.420571 0 253.659429-32.402286 423.131428-97.645714l31.524572 81.92c-178.688 68.754286-330.020571 103.497143-454.656 103.497143-123.977143 0-274.870857-31.012571-453.12-92.525714zM73.362286 417.645714l28.598857-83.017143c169.837714 58.660571 311.588571 87.771429 424.521143 87.771429 112.420571 0 253.659429-32.402286 423.131428-97.645714l31.524572 81.92c-178.688 68.754286-330.020571 103.497143-454.656 103.497143-123.977143 0-274.870857-31.012571-453.12-92.525715z" fill="#ffffff" p-id="2850"></path><path d="M430.08 59.245714l82.505143 30.061715c-57.929143 158.427429-86.674286 294.253714-86.674286 407.113142 0 112.347429 32.402286 253.659429 97.645714 423.058286l-81.92 31.524572c-68.754286-178.614857-103.497143-329.947429-103.497142-454.582858 0-124.269714 30.793143-269.897143 91.940571-437.248zM650.971429 59.245714l-82.358858 30.061715c57.856 158.427429 86.601143 294.253714 86.601143 407.113142 0 112.347429-32.402286 253.659429-97.645714 423.058286l81.92 31.524572c68.827429-178.614857 103.497143-329.947429 103.497143-454.582858 0-124.269714-30.793143-269.897143-91.940572-437.248z" fill="#ffffff" p-id="2851"></path><path d="M526.482286 994.742857a482.742857 482.742857 0 1 1 0-965.485714 482.742857 482.742857 0 0 1 0 965.485714z m0-87.771428a394.971429 394.971429 0 1 0 0-789.942858 394.971429 394.971429 0 0 0 0 789.942858z" fill="#ffffff" p-id="2852"></path></svg>