<?xml version="1.0" standalone="no"?><!DOCTYPE svg PUBLIC "-//W3C//DTD SVG 1.1//EN" "http://www.w3.org/Graphics/SVG/1.1/DTD/svg11.dtd"><svg t="1618446958002" class="icon" viewBox="0 0 1233 1024" version="1.1" xmlns="http://www.w3.org/2000/svg" p-id="1446" id="mx_n_1618446958003" xmlns:xlink="http://www.w3.org/1999/xlink" width="240.8203125" height="200"><defs><style type="text/css"></style></defs><path d="M834.629818 313.809455c13.893818 0 27.764364 1.163636 41.658182 2.327272C838.074182 137.937455 651.822545 6.050909 438.946909 6.050909 200.610909 6.050909 5.12 171.52 5.12 382.091636c0 120.32 64.791273 219.810909 173.521455 297.332364l-42.821819 133.026909 150.434909-77.498182c54.365091 10.379636 98.327273 21.992727 152.715637 21.992728 12.706909 0 26.600727 0 40.494545-1.163637a314.786909 314.786909 0 0 1-13.893818-92.578909c0-193.186909 163.141818-349.393455 369.058909-349.393454zM600.901818 193.512727c32.395636 0 54.388364 21.969455 54.388364 55.528728 0 33.559273-21.992727 55.528727-54.388364 55.528727-32.395636 0-64.791273-21.969455-64.791273-55.528727 0-33.559273 32.395636-55.528727 64.791273-55.528728z m-303.127273 111.057455c-32.372364 0-64.791273-21.969455-64.791272-55.528727 0-33.559273 32.418909-55.528727 64.791272-55.528728 32.418909 0 54.388364 21.969455 54.388364 55.528728 0 33.559273-21.969455 55.528727-54.388364 55.528727z m931.328 352.837818c0-175.848727-172.381091-320.465455-367.895272-320.465455-205.917091 0-367.895273 144.616727-367.895273 320.465455 0 177.012364 161.978182 320.512 367.895273 320.512 43.985455 0 86.760727-11.613091 130.722909-22.016l118.016 65.978182-32.395637-109.940364c86.760727-67.072 151.552-154.996364 151.552-254.533818z m-487.051636-55.505455c-21.992727 0-42.821818-20.805818-42.821818-43.985454 0-21.992727 20.829091-43.938909 42.821818-43.938909 32.372364 0 54.365091 21.946182 54.365091 43.962182 0 23.156364-21.992727 43.962182-54.365091 43.962181z m238.312727 0c-21.969455 0-42.798545-20.805818-42.798545-43.985454 0-21.992727 20.829091-43.938909 42.821818-43.938909 32.372364 0 54.365091 21.946182 54.365091 43.962182 0 23.156364-21.992727 43.962182-54.365091 43.962181z" fill="#09BB07" p-id="1447" data-spm-anchor-id="a313x.7781069.0.i7" class=""></path></svg>