<?xml version="1.0" standalone="no"?><!DOCTYPE svg PUBLIC "-//W3C//DTD SVG 1.1//EN" "http://www.w3.org/Graphics/SVG/1.1/DTD/svg11.dtd"><svg t="1618808178884" class="icon" viewBox="0 0 1024 1024" version="1.1" xmlns="http://www.w3.org/2000/svg" p-id="2006" xmlns:xlink="http://www.w3.org/1999/xlink" width="400" height="400"><defs><style type="text/css"></style></defs><path d="M511.33 1.58c282.02 0 510.64 228.62 510.64 510.63 0 282.02-228.62 510.64-510.64 510.64C229.32 1022.86 0.7 794.24 0.7 512.22S229.32 1.58 511.33 1.58z m0 78.67c-238.57 0-431.97 193.4-431.97 431.96 0 238.58 193.4 431.98 431.97 431.98 238.57 0 431.98-193.41 431.98-431.98 0-238.56-193.41-431.96-431.98-431.96z m68.06 326.92l-50.18 264.87c-1.24 6.57-2.34 13.28-3.28 19.99-0.63 4.19-0.96 8.4-1.03 12.62 0 14.01 3.28 24.8 10 31.95 6.57 7.3 16.12 10.95 28.74 10.95 5.54 0 12.91-0.88 22.18-2.7 9.26-1.75 19.77-4.59 31.73-8.46v32.09c-23.41 9.77-47.63 17.52-72.29 23.35a285.515 285.515 0 0 1-61.64 7.29c-19.11 0-33.56-5.25-43.48-15.54-9.85-10.43-14.74-25.46-14.74-45.37 0-5.11 0.51-11.45 1.46-18.97 1.02-7.52 2.92-18.97 5.69-33.93l42.16-210.96-64.34-9.93v-27.56l134.52-29.7h34.5z m-34.5-162.38c30.22 0 54.71 24.5 54.71 54.71 0 30.22-24.49 54.71-54.71 54.71-30.21 0-54.71-24.49-54.71-54.71 0-30.21 24.49-54.71 54.71-54.71z m0 0" p-id="2007" fill="#ffffff"></path></svg>