<?xml version="1.0" standalone="no"?><!DOCTYPE svg PUBLIC "-//W3C//DTD SVG 1.1//EN" "http://www.w3.org/Graphics/SVG/1.1/DTD/svg11.dtd"><svg t="1618809866424" class="icon" viewBox="0 0 1024 1024" version="1.1" xmlns="http://www.w3.org/2000/svg" p-id="4531" xmlns:xlink="http://www.w3.org/1999/xlink" width="400" height="400"><defs><style type="text/css"></style></defs><path d="M950.857 544.183a36.571 36.571 0 0 1 73.143 0v348.891A130.926 130.926 0 0 1 893.074 1024H130.926A130.926 130.926 0 0 1 0 893.074V130.926A130.926 130.926 0 0 1 130.926 0H505.05a36.571 36.571 0 1 1 0 73.143H130.926a59.611 59.611 0 0 0-57.783 57.783v762.148a59.611 59.611 0 0 0 57.783 57.783h762.148a59.611 59.611 0 0 0 57.783-57.783zM279.04 792.503a36.571 36.571 0 1 1-50.103-50.834l716.8-709.852a36.571 36.571 0 1 1 50.103 50.834z" p-id="4532" fill="#ffffff"></path></svg>