<?xml version="1.0" standalone="no"?><!DOCTYPE svg PUBLIC "-//W3C//DTD SVG 1.1//EN" "http://www.w3.org/Graphics/SVG/1.1/DTD/svg11.dtd"><svg t="1619066028198" class="icon" viewBox="0 0 1024 1024" version="1.1" xmlns="http://www.w3.org/2000/svg" p-id="9551" xmlns:xlink="http://www.w3.org/1999/xlink" width="400" height="400"><defs><style type="text/css"></style></defs><path d="M276.4 853.7m-23.6 0a23.6 23.6 0 1 0 47.2 0 23.6 23.6 0 1 0-47.2 0Z" fill="#C0DAFF" p-id="9552"></path><path d="M252.8 193.9h11.8c6.5 0 11.8-5.3 11.8-11.8 0-6.5-5.3-11.8-11.8-11.8h-11.8v-11.8c0-6.5-5.3-11.8-11.8-11.8-6.5 0-11.8 5.3-11.8 11.8v11.8h-11.8c-6.5 0-11.8 5.3-11.8 11.8 0 6.5 5.3 11.8 11.8 11.8h11.8v11.8c0 6.5 5.3 11.8 11.8 11.8 6.5 0 11.8-5.3 11.8-11.8v-11.8zM893.9 264.6l17-17c4.4-4.4 4.4-11.6 0-16l-0.7-0.7c-4.4-4.4-11.6-4.4-16 0l-17 17-17-17c-4.4-4.4-11.6-4.4-16 0l-0.7 0.7c-4.4 4.4-4.4 11.6 0 16l17 17-17 17c-4.4 4.4-4.4 11.6 0 16l0.7 0.7c4.4 4.4 11.6 4.4 16 0l17-17 17 17c4.4 4.4 11.6 4.4 16 0l0.7-0.7c4.4-4.4 4.4-11.6 0-16l-17-17zM676.9 806.5h-47.1c-6.5 0-11.8 5.3-11.8 11.8 0 6.5 5.3 11.8 11.8 11.8h47.1c6.5 0 11.8-5.3 11.8-11.8 0-6.5-5.3-11.8-11.8-11.8z" fill="#C0DAFF" p-id="9553"></path><path d="M768.4 729c24-41.4 34.1-87.1 34.1-138.4 0-155.2-125.8-281-281-281s-281 125.8-281 281c0 51.2 10.1 97 34.1 138.4h493.8z" fill="#C0DAFF" p-id="9554"></path><path d="M301.8 717h443.4v54.8H301.8z" fill="#C0DAFF" p-id="9555"></path><path d="M912.6 771.8H730.8c-8.9 0-17.1-5.1-21.1-13-4-8-3.1-17.5 2.2-24.7 31.1-41.3 47.5-90.1 47.5-141.4 0-129.9-105.7-235.6-235.6-235.6-129.9 0-235.6 105.7-235.6 235.6 0 51.2 16.4 100.1 47.5 141.4 5.4 7.1 6.2 16.7 2.3 24.7-4 8-12.1 13-21.1 13H135c-13 0-23.6-10.6-23.6-23.6 0-13 10.6-23.6 23.6-23.6h138.9c-21.6-40.5-32.9-85.4-32.9-132 0-155.9 126.8-282.8 282.8-282.8s282.8 126.8 282.8 282.8c0 46.5-11.3 91.4-32.9 132h138.9c13 0 23.6 10.6 23.6 23.6-0.1 13-10.6 23.6-23.6 23.6z" fill="#2B72DE" p-id="9556"></path><path d="M510.8 642.2c-1.8 0-3.6-0.2-5.4-0.6-8-1.9-14.4-7.7-16.9-15.5l-21.9-65.8-38.8 69.8c-4.1 7.4-11.8 12-20.2 12.1-8.2 0.2-16.3-4.2-20.6-11.4L348.1 566c-6.7-11.2-3.1-25.6 8.1-32.3 11.2-6.7 25.6-3.1 32.3 8.1l17.9 29.8 45-81c4.5-8.2 13.5-12.9 22.8-12 9.3 0.9 17.2 7.1 20.2 16l26.8 80.5 50.8-50.8c4.7-4.7 11.3-7.2 18-6.9 6.7 0.4 12.9 3.6 17.1 8.8l31.7 39.6 34-51c7.2-10.8 21.8-13.8 32.7-6.5 10.8 7.2 13.7 21.8 6.5 32.7l-52 77.7c-4.2 6.3-11.1 10.1-18.6 10.5-7.7 0.3-14.7-3-19.4-8.8l-35.4-44.2-59.1 59.1c-4.5 4.5-10.5 6.9-16.7 6.9z" fill="#2B72DE" p-id="9557"></path></svg>