<?xml version="1.0" standalone="no"?><!DOCTYPE svg PUBLIC "-//W3C//DTD SVG 1.1//EN" "http://www.w3.org/Graphics/SVG/1.1/DTD/svg11.dtd"><svg t="1620719087665" class="icon" viewBox="0 0 1024 1024" version="1.1" xmlns="http://www.w3.org/2000/svg" p-id="1306" xmlns:xlink="http://www.w3.org/1999/xlink" width="400" height="400"><defs><style type="text/css"></style></defs><path d="M364.7 889.2c-24.5 0-48.6-3.7-71.7-11.1-55.2-17.6-91.7-51.7-112.7-77.2l-5.3-6.4 5.3-6.4c6.8-8.1 14.1-15.9 22-23 5.7-5.2 11.6-10.1 17.8-14.7-27.3-9.9-64-29.6-93-68.5-28.7-38.4-37-78.4-39-105.2l-0.5-7.3 6.8-2.7c20.4-8.1 74-24.3 130.6-0.5 17.2 7.3 33 17.4 46.9 30.3 1.7-2.5 3.7-4.9 5.8-7.2 2.8-2.9 5.9-5.5 9.2-7.8l5.1-3.4 5.3 3c22.9 12.7 42.9 29.3 59.4 49.3 8.5 10.3 16 21.5 22.4 33.3 1.5-1.6 3.1-3.2 4.7-4.7 4.9-4.5 10.5-8.2 16.5-11.1l7.4-3.6 4.9 6.5c14.7 19.5 25.3 41.3 31.5 64.9 6.5 24.6 7.8 51 3.8 76.2l-19.8-3.1c3.6-22.5 2.4-46-3.4-68-4.8-18.2-12.5-35.2-22.9-50.7-1.6 1.1-3.1 2.4-4.6 3.7-4.4 4-8.1 8.8-10.8 14.1l-9.6 18.8-8.4-19.4c-7-16-16.1-30.9-27.1-44.2-13.5-16.4-29.6-30.2-47.9-41.2l-1.2 1.2c-3.6 3.8-6.3 8.3-8.1 13.5l-5.5 15.9-11.4-12.4c-14.3-15.6-31.2-27.6-50-35.5-44.3-18.7-86.8-9.3-108.4-1.9 2.7 23.7 11.1 56.1 34.3 87.2 33.5 44.9 78.5 61.4 102.4 67.3l23.4 5.7-20.5 12.5c-11.6 7.1-22.5 15.2-32.5 24.3-5.1 4.6-9.9 9.5-14.6 14.7C221.1 817 253 844.3 299 859c21.6 6.9 44.1 10.3 67 10.2-7.5-34.8-23.9-82.3-59.4-128.6-29.4-38.3-67.8-70-111.1-91.7-4.4-2.9-5.9-8.7-3.5-13.2 2.3-4.4 7.7-6.4 12.4-4.6 27.1 13.6 75.8 42.5 117.9 97.4 42 54.7 58.8 111 65.5 148.6l2 11.1-11.2 0.6c-4.6 0.2-9.3 0.4-13.9 0.4z" fill="#ffffff" p-id="1307"></path><path d="M592.1 829.4c-11.8 0-24.3-1-37.2-3.2-51.8-8.9-88.8-34.2-110.7-53.8l-8.1-7.2 7.9-7.5c46-43.7 102-76.7 162-95.6 91.3-28.7 172.4-19.7 224.4-7.1 5.2 1.8 8.1 7.4 6.6 12.4-1.4 4.7-6.2 7.8-11.3 7-36.7-8.9-118.3-23.3-213.7 6.7-53.6 16.8-103.8 45.6-146 83.4 20.5 16.4 51.3 34.8 92.4 41.9 57.6 9.9 104.4-7.7 129.6-21 0.1-5.2-0.5-10.5-1.6-15.6-1.5-6.7-3.9-13.1-7.3-19l-10.2-18 20.5 3.2c27.4 4.3 80.9 6.6 131.4-25.4 17.6-11.1 33-25.3 46-42.1-9.3-18.3-28.2-47-62.3-65.8-15.8-8.7-33.1-14.3-51.3-16.8l-8.7-1.2v-21.9c-27.9-2.6-66.8-0.5-106.9 19.7-22.4 11.3-42.2 26.7-59 46l-8.2 9.5-21.7-29.8c-7.2 4.3-17.7 10.7-24.2 15.4-13.1 9.4-24.3 22.6-33.2 39.1l-17.6-9.5c10.4-19.2 23.6-34.6 39.1-45.8 11.3-8.2 33.5-21 34.2-21.3l7.6-3.8 17.5 24c16.6-17 35.6-30.9 56.6-41.5 49-24.6 96.2-24.8 127.2-20.6l8.7 1.2v22.3c17.5 3.3 34.2 9.2 49.6 17.7 42.6 23.4 64.3 60.3 73.4 80.2l2.4 5.3-3.4 4.7c-15.2 21-33.7 38.5-55 52.1C785 757.2 736.4 760.5 704 758c0.8 2.5 1.5 5.1 2.1 7.8 1.9 8.8 2.5 17.9 1.7 26.9l-0.5 5.2-4.6 2.6c-21.3 11.7-60.6 28.9-110.6 28.9z" fill="#ffffff" p-id="1308"></path><path d="M389.9 888.1c-5.2-4.3-10.4-8.6-15.5-12.9 18.9-26.3 36.1-54.1 51.3-82.8 10.9-20.6 27.4-51.8 36.8-82.3 15.3-49.6 14.1-107.4-3.3-167.3l19.2-5.6c18.5 63.6 19.6 125.4 3.2 178.7-9.9 32.1-27 64.5-38.2 85.7-19.6 37.1-39 66.3-53.5 86.5zM400 404.5c-4.9 0.9-9.1-2.8-9.3-6.8-0.1-3.3 2.6-6.5 6.5-7.3 7.6-1.8 15.2-3.5 22.8-5.3 1.1-10.1 2.3-20.1 3.4-30.2-0.6-4.6 2.9-8.4 6.5-8.5 3.8-0.1 7.6 3.7 7 8.5 1.1 12.9 2.3 25.8 3.4 38.6l0.3 9.2c-13.4 0.7-27 1.2-40.6 1.8z" fill="#ffffff" p-id="1309"></path><path d="M421.5 432.5c-1.4 3.6-5.6 5.1-8.8 3.5-3.1-1.6-4.3-5.8-2.3-9 4.9-15.7 9.9-31.3 14.8-47l51.9 33.3c5 2.5 6.2 7.8 4.5 10.3-1.5 2.1-5.8 2.8-9.8 0.5-12.2-5.3-24.3-10.7-36.5-16-4.4 8.1-9.1 16.2-13.8 24.4z" fill="#ffffff" p-id="1310"></path><path d="M434.8 403l-8.7-18c13-4.7 25.9-9.5 38.9-14.2 3.9-2.8 8.8-1.2 10.3 1.8 1.2 2.5 0 6.3-3.3 8.3-12.4 7.3-24.8 14.7-37.2 22.1z" fill="#ffffff" p-id="1311"></path><path d="M428.8 500.6c-0.9 0-1.8 0-2.7-0.1-9.5-0.9-18.2-6.7-23.9-15.3-14.9 5.7-31.9 2-41.9-10.4-6.4-7.9-8.7-18.4-7-28.6-15.7-3.4-28.4-15-30.9-30.2-1.7-10.4 1.7-21.3 9.2-29.9-6.2-13.3-5.8-27.3 1.4-37.1 7.6-10.3 21.3-14 31.5-13 4.9 0.5 8.9 1.9 12.8 3.4l1.5 0.6c-1.4-11.8 2.8-23.9 12-31.9 9.8-8.4 23.8-10.6 36-6.3 9.4-11.7 25.1-17.6 40-14 13.3 3.2 23.7 13.1 28 25.6 17.3-4.1 34.8 1.4 43.5 14.6 5.3 8 5.9 16.8 5.1 23.5 15.2 8.2 24.4 24.1 21.6 39.3-1.7 9.6-8.3 18.3-18 23.8-0.9 0.5-1.8 1-2.7 1.4 1.2 1.6 2.3 3.2 3.3 4.9 3.5 6.3 4.4 12.9 2.6 18.5-3.3 10.2-15.2 16.8-30.6 17.6-4.6 7.7-14.3 19.7-31.6 23.4-10.9 2.3-20.5 0.4-27.6-2.5-2.2 5.3-5.5 10-9.7 13.8-6.4 5.8-14.2 8.9-21.9 8.9zM412.2 454l4.1 14.5c1.8 6.5 6.7 11.6 11.7 12.1 3 0.3 6.4-1.1 9.3-3.6 3.9-3.5 6.2-8.8 6.2-14.5l0.1-21.2 16.3 13.6c1.1 0.9 11 8.8 23.9 6.1 14.6-3.1 20.1-16.9 20.3-17.5l2.6-6.8 7.3 0.4c9.4 0.6 15.6-2.3 17-3.8-0.2-2.4-4.5-10-16.4-14.3-1.7-0.4-3.5-1-5.2-1.6l6-19.1c1.6 0.4 3.1 0.9 4.7 1.4 5.9 1.3 12 0.4 17-2.5 4.4-2.5 7.5-6.3 8.2-10 1.2-6.8-5.2-16.8-16.3-20.2l-9.7-3 3.1-9.7c0.5-1.6 2.9-9.7-0.8-15.4-4.5-6.9-17.6-9.8-30-3.2l-15.1 8.1 0.4-17.1c0.2-9.2-6-17.4-14.8-19.5-9.1-2.2-18.7 2.8-22.4 11.5l-4.9 11.5-10.2-7.2c-6.5-4.7-15.3-4.5-20.9 0.3-6.6 5.7-7.2 16.2-1.4 23.6l12.8 16.2h-20.9c-11-0.1-18.2-2.7-23.9-4.8-3.1-1.1-5.5-2-7.8-2.2-4.4-0.4-10.8 1.4-13.5 5-2.9 3.9-2.7 12.5 3.3 21.5l5.1 7.7-7.3 5.7c-5.9 4.5-9 11.2-8.1 16.9 1.4 8.2 11.3 15.9 23.9 14.2l21.3-2.8-11.6 18.1c-4.2 6.6-4.2 14.8 0 20 4.9 6.1 16 8 24.7 1.1l11.9-9.5z m118.9-20.4z m0.2-0.6z" fill="#ffffff" p-id="1312"></path><path d="M461.5 544.1c-2.4 0-4.7-0.2-7-0.7-11.6-2.2-24.8-10.6-38.6-24.5-21.7 20.1-53.6 24.4-75.6 8.9-16-11.3-20.8-29.1-22.1-41.2-24.4 1.9-47.9-10.6-57.7-32-6.3-13.8-6.1-30.3 0.4-45.2 5.1-11.7 13.8-21.5 24.7-28-9.8-14.8-12.7-33.1-7.1-49.6 5.7-16.8 18.3-26.3 26.2-30.8 1.4-9.2 5.3-22.1 16.1-32.5 15.3-14.6 39.1-18.7 61.3-11.5 3.5-13.8 11.9-25.4 23.6-31.8 11.1-6.1 25-7.3 38.2-3.4 9.8 3 18.7 8.5 25.9 16.1 17.3-13.1 39.6-17.3 59.5-10.4 3.2 1.1 31 11.4 38.3 39.9 2.7 10.6 2 21.7-1.6 32 19.8-4.9 36.8-2.2 45.8 8.7 9.4 11.4 6.3 28.4 2.2 40.7 12.4 11.4 20.4 26.9 22.3 43.4 2 17.2-2.8 34.1-13.1 46.3-13.8 16.3-36.3 23.5-58.6 19.7 0.8 8.4 0.1 16.7-2.1 24.4-3.8 13.3-11.7 23.8-22.2 29.5-8.4 4.6-18.7 6.1-29.4 4.4-17.9 18.6-34.2 27.6-49.4 27.6z m-47.2-54.2l7.9 6.8c0.6 0.5 1 0.9 1.8 1.9 18.3 20.5 29.9 24.5 34.1 25.3 13.5 2.5 30.2-12.1 41.8-24.9l4.1-4.5 5.9 1.6c4.6 1.2 13.3 2.7 20.7-1.3 11.3-6.2 18.6-25.6 11.2-47.5l-7.3-21.6 20.8 9.2c18.9 8.4 41 4.5 52.6-9.2 6.7-8 9.8-19.3 8.5-31.1-1.6-13.6-9-26.2-20.3-34.6l-6.4-4.7 3.1-7.3c5.3-12.4 6.7-23.3 3.5-27.3-4.6-5.6-25.4-6.3-51.9 9-4.1 3.3-8.5 6.2-13.4 8.6l-10.3-17c4.1-2.9 8.2-5.6 12.3-8 12.7-10.8 18.9-26.6 15.3-41-4.8-18.6-24.6-25.6-25.4-25.9-15.9-5.5-34.3-0.4-47 12.9l-8.8 9.2-6.9-10.7c-11.7-18.2-32.3-22-44.8-15.2-9.2 5.1-15 16.1-15.1 28.8l-0.1 16.8-14.7-8.2c-17.8-9.9-38.7-8.8-50.8 2.7-8.5 8.1-10.3 19.2-10.6 25.1l-0.3 6.2-5.7 2.4c-3.7 1.6-16 7.8-20.6 21.6-4.5 13.4-0.2 28.9 11 39.5l12.2 11.5-16 5.2c-11.4 3.7-20.7 12.1-25.5 23-4.3 9.7-4.5 20.3-0.5 28.9 7.3 15.9 27.6 24.2 46.4 18.9l14-4-1.3 14.5c0 0.2-1.8 24.5 14.1 35.8 14.2 10.1 40.2 7.1 56.2-13.4l6.2-8z" fill="#ffffff" p-id="1313"></path><path d="M411 607.7c-20.5 0-40.5-11.3-52.8-29.4-13.2 4.9-38.4 10.9-61.8-2.8-15.2-8.9-26.2-24.1-31-42.9-3.5-13.5-3.3-27.9 0.2-41.7-15.9 0.4-31.6-3.8-44.7-12-15.4-9.7-25.8-23.8-29.4-39.8-4.6-20.6 3-43.6 19.4-60.8-9.4-11.9-15-26.3-15.9-41.5-1.1-18.1 4.7-35.6 15.9-47.9 12.3-13.5 30.7-20.9 50.7-20.4 6.6 0.2 13.1 1.3 19.3 3.1-0.5-2.5-0.9-5-1.1-7.6-1.6-16.9 3.4-33.4 13.7-45.1 13.6-15.6 35.7-22.6 58-18.8 6.1-11 19.7-29.9 44.4-36.2 39.7-10 68.5 20.9 69.7 22.2 2.8 3.1 5.3 6.4 7.5 9.9 19.2-26.8 51.6-41 82.1-34.1 30.8 7 46.8 32.8 53.1 45.9 16.2-1.2 32.5 2.6 46.5 11.1 16.3 9.8 28.2 25 33.5 42.8 5.7 19.2 3.5 39.7-6.4 57.8-6 10.9-14.2 20.1-24.2 27 9.5 5.4 17.7 12.6 24.2 21.3 11.1 14.9 15.7 32.5 13.1 49.4-3.3 21.5-18.3 40.2-39.8 50.5 5.7 35.7-4.8 57.9-11.9 68.4-14.9 21.8-42.5 36.1-76 39.1-30.4 2.7-63.8-3.9-95.3-18.8-2.7 11.4-8.2 22-16.1 30.7-11.2 12.4-26.1 19.7-41.7 20.6H411zM366.8 552l4.6 9.2c8.3 16.8 25.1 27.4 41.8 26.4 22.1-1.3 40.5-22.3 40.9-46.9l0.3-16.6 14.5 8c68.7 37.9 135.5 25.7 158-7.5 4.7-6.9 14.9-26.7 7.4-61.2l-1.9-8.6 8.3-2.9c18.5-6.6 32.1-21.5 34.7-38 3.8-24.9-16.1-50.4-44.5-56.9l-36.7-8.3 36-11c29.9-9.1 47.9-41.4 39.1-70.5-8.1-26.9-36.8-44-65.3-38.9l-8.5 1.5-2.8-8.2c-0.1-0.3-11.7-33.6-41.8-40.4-27.5-6.2-57.3 11.2-69.4 40.6l-11 26.8-7.9-27.8c-2.3-8.2-6.3-15.4-11.7-21.3-0.2-0.2-21.9-23.4-50-16.3-23.9 6-33.4 29.3-34.4 31.9l-3.3 8.6-8.8-2.6c-17.3-5.1-35.6-0.7-45.7 10.8-11.7 13.4-12.9 37.9 1.8 56.7 2.4 2.3 4.8 4.8 6.9 7.4l-14.5 13.6c-2.5-2.3-4.8-4.8-7-7.3-9.5-8.6-21.8-13.6-34.7-13.9-14.1-0.4-27 4.6-35.3 13.8-14.9 16.4-16 48.2 6.2 69.4l8.2 7.8-8.8 7.2c-15.9 12.9-23.9 31.8-20.3 48.1 2.4 10.6 9.8 20.5 20.5 27.2 13.4 8.4 30.4 11.1 46.7 7.3l20.2-4.7-8.9 18.7c-13.4 28-5.8 61.7 16.9 74.9 22.7 13.3 50.9-1.4 51.2-1.5l9-4.6zM763 562l-17.3-10 47.9-82.8c-12.1-8.5-26.6-21.7-38.3-40.8-15.1-24.7-19.3-48.9-20.1-64.8l-0.4-6.9 6.3-2.8c8.7-3.8 22.5-7.8 38.8-4.9 22.3 3.9 36.6 18.5 43.9 28.4 10.4-5 21.4-8.1 32.9-9.1 30.8-2.9 54.5 9.8 65.9 17.6l6.1 4.2-2.3 7.1c-4.4 13.7-15.7 39.5-42.8 58.6-27 19.1-55.5 21.3-71.2 20.7L763 562z m47.3-105.8c11.9 0.9 37.6 0.3 61.9-16.9 18.1-12.8 27.7-29.3 32.6-41.1-10.4-5.8-26.5-12-46.2-10.1-11.6 1.1-22.7 4.8-33 11l-9 5.4-5-9.3c-2-3.8-13.1-22.7-35.1-26.6-7.9-1.4-15.1-0.5-20.8 1.2 1.5 13.2 5.8 30.5 16.6 48.1 11.8 19.2 26.8 31.3 38 38.3z" fill="#ffffff" p-id="1314"></path><path d="M915.1 390.6l-17.2-10.3c2.1-3.6 12.3-22.4 4.3-42.7-2.6-6.7-10.4-22.4-26-25.3-14.7-2.8-30.9 6.5-39.2 22.6l-8.1 15.5-9.3-14.9c-5.8-9.4-16.3-14.5-26.1-12.6-12.3 2.3-21.3 15.4-20 29.1l-19.9 1.9c-2.3-24.2 13.7-46.4 36.3-50.7 13.1-2.4 26.8 1.7 37.2 10.6 13.5-16.3 33.7-24.8 52.8-21.2 25.4 4.7 37.1 27.9 41 37.7 11.4 29.1-2.8 55.4-5.8 60.3z" fill="#ffffff" p-id="1315"></path></svg>