<?xml version="1.0" standalone="no"?><!DOCTYPE svg PUBLIC "-//W3C//DTD SVG 1.1//EN" "http://www.w3.org/Graphics/SVG/1.1/DTD/svg11.dtd"><svg t="1619066090696" class="icon" viewBox="0 0 1024 1024" version="1.1" xmlns="http://www.w3.org/2000/svg" p-id="12330" xmlns:xlink="http://www.w3.org/1999/xlink" width="400" height="400"><defs><style type="text/css"></style></defs><path d="M204.8 648.533333c0 179.2 145.066667 324.266667 324.266667 324.266667 0-179.2-145.066667-324.266667-324.266667-324.266667z m324.266667 324.266667c179.2 0 324.266667-145.066667 324.266666-324.266667-179.2 0-324.266667 145.066667-324.266666 324.266667z" fill="#3889FF" p-id="12331"></path><path d="M520.533333 273.066667c61.44 0 110.933333 49.493333 110.933334 110.933333S581.973333 494.933333 520.533333 494.933333 409.6 445.44 409.6 384s49.493333-110.933333 110.933333-110.933333zM238.933333 474.453333c0 59.733333 49.493333 109.226667 109.226667 109.226667 23.893333 0 44.373333-6.826667 63.146667-18.773333l-1.706667 8.533333c0 59.733333 49.493333 109.226667 109.226667 109.226667 61.44 0 109.226667-49.493333 109.226666-109.226667v-8.533333c17.066667 11.946667 39.253333 18.773333 63.146667 18.773333 61.44 0 109.226667-49.493333 109.226667-109.226667 0-44.373333-25.6-81.92-63.146667-98.986666 37.546667-17.066667 63.146667-54.613333 63.146667-98.986667 0-61.44-49.493333-109.226667-109.226667-109.226667-23.893333 0-44.373333 6.826667-63.146667 18.773334v-8.533334c0-59.733333-49.493333-109.226667-109.226666-109.226666-61.44 0-109.226667 49.493333-109.226667 109.226666l1.706667 8.533334c-17.066667-11.946667-39.253333-18.773333-63.146667-18.773334-59.733333 0-109.226667 49.493333-109.226667 109.226667 0 44.373333 25.6 81.92 63.146667 98.986667-37.546667 17.066667-63.146667 54.613333-63.146667 98.986666z" fill="#FB560A" p-id="12332"></path></svg>